# xmcd
#
# Track frame offsets: 
#        150
#        12964
#        28369
#        43016
#        61918
#        77247
#        92207
#        109654
#        121271
#        134518
#        151945
#        164889
#        180473
#        192347
#        209182
#
# Disc length: 2947 seconds
#
# Revision: 0
# Processed by: cddbd v1.5.2PL0 Copyright (c) Steve Scherf et al.
# Submitted via: ExactAudioCopy v0.99pb4
#
DISCID=d90b810f
DTITLE=Roberto Murolo - Anema e Core
DYEAR=1994
DGENRE=National Folk
TTITLE0=Serenatella Sciue' Sciue'
TTITLE1='E Spingule Frangese
TTITLE2=Anema e core
TTITLE3=Voce 'e notte
TTITLE4=Quanno tramonta 'o sole
TTITLE5=Dictincelle vuie
TTITLE6=N'accordo in Fa
TTITLE7='A sunnambula
TTITLE8=Passione
TTITLE9=Core 'ngrato
TTITLE10='A Canzone d''a felicita'
TTITLE11=Malafemmena
TTITLE12=Tu ca' nun chiagne
TTITLE13=Canzone Appasiunata
TTITLE14='O Surdato 'nnammurato
EXTD=
EXTT0=
EXTT1=
EXTT2=
EXTT3=
EXTT4=
EXTT5=
EXTT6=
EXTT7=
EXTT8=
EXTT9=
EXTT10=
EXTT11=
EXTT12=
EXTT13=
EXTT14=
PLAYORDER=
